<?xml version="1.0" standalone="no"?>
<!DOCTYPE svg PUBLIC "-//W3C//DTD SVG 20010904//EN"
 "http://www.w3.org/TR/2001/REC-SVG-20010904/DTD/svg10.dtd">
<svg version="1.0" xmlns="http://www.w3.org/2000/svg"
 width="1120.000000pt" height="1120.000000pt" viewBox="0 0 1120.000000 1120.000000"
 preserveAspectRatio="xMidYMid meet">

<g transform="translate(0.000000,1120.000000) scale(0.100000,-0.100000)"
fill="#1f5bff" stroke="none">
<path d="M5380 9859 c-1260 -90 -2391 -725 -3131 -1760 -891 -1247 -1016
-2933 -318 -4310 416 -821 1110 -1499 1936 -1891 1085 -515 2345 -540 3453
-68 1008 429 1834 1275 2238 2291 397 997 399 2101 5 3109 -102 260 -293 615
-455 844 -695 983 -1730 1610 -2903 1760 -267 34 -566 43 -825 25z m755 -967
c368 -58 637 -143 970 -307 850 -418 1478 -1194 1710 -2115 75 -296 100 -533
92 -873 -6 -257 -22 -397 -72 -622 -267 -1194 -1195 -2146 -2377 -2440 -312
-77 -528 -100 -871 -92 -256 6 -419 24 -627 72 -942 216 -1725 822 -2172 1681
-165 318 -272 647 -331 1024 -18 116 -21 179 -22 450 0 330 5 392 51 632 96
498 331 1003 659 1413 102 128 362 388 490 490 471 377 1068 630 1635 694 52
6 109 13 125 15 17 2 161 3 320 1 232 -2 316 -7 420 -23z"/>
<path d="M7544 6942 c-27 -10 -66 -27 -85 -39 -19 -12 -538 -526 -1154 -1143
l-1120 -1121 -545 547 c-312 313 -560 554 -582 565 -126 64 -289 64 -418 -1
-159 -81 -252 -274 -221 -456 26 -147 -25 -90 905 -1021 468 -469 855 -853
861 -853 6 0 654 645 1441 1433 1286 1286 1433 1437 1453 1486 74 177 35 388
-94 510 -86 81 -147 105 -280 108 -86 3 -121 0 -161 -15z"/>
</g>
</svg>
