<?xml version="1.0" encoding="UTF-8"?>
<svg xmlns="http://www.w3.org/2000/svg" xmlns:xlink="http://www.w3.org/1999/xlink" width="45px" height="45px" viewBox="0 0 45 45" version="1.1">
<g id="surface1">
<path style=" stroke:none;fill-rule:nonzero;fill:rgb(16.078431%,71.372549%,96.470588%);fill-opacity:1;" d="M 41.25 22.5 C 41.25 32.855469 32.855469 41.25 22.5 41.25 C 12.144531 41.25 3.75 32.855469 3.75 22.5 C 3.75 12.144531 12.144531 3.75 22.5 3.75 C 32.855469 3.75 41.25 12.144531 41.25 22.5 Z M 41.25 22.5 "/>
<path style=" stroke:none;fill-rule:nonzero;fill:rgb(100%,100%,100%);fill-opacity:1;" d="M 31.828125 14.0625 L 28.316406 31.992188 C 28.316406 31.992188 28.167969 32.8125 27.144531 32.8125 C 26.605469 32.8125 26.332031 32.554688 26.332031 32.554688 L 18.726562 26.246094 L 15 24.371094 L 10.222656 23.097656 C 10.222656 23.097656 9.375 22.851562 9.375 22.148438 C 9.375 21.5625 10.246094 21.28125 10.246094 21.28125 L 30.234375 13.339844 C 30.234375 13.339844 30.84375 13.125 31.289062 13.125 C 31.566406 13.125 31.875 13.242188 31.875 13.59375 C 31.875 13.828125 31.828125 14.0625 31.828125 14.0625 Z M 31.828125 14.0625 "/>
<path style=" stroke:none;fill-rule:nonzero;fill:rgb(81.176471%,84.705882%,86.27451%);fill-opacity:1;" d="M 28.03125 17.058594 C 27.867188 16.851562 27.582031 16.816406 27.371094 16.96875 L 15 24.375 C 15 24.375 16.972656 29.902344 17.273438 30.855469 C 17.578125 31.808594 17.816406 31.832031 17.816406 31.832031 L 18.722656 26.246094 L 27.9375 17.714844 C 28.148438 17.558594 28.183594 17.269531 28.03125 17.058594 Z M 28.03125 17.058594 "/>
</g>
</svg>
