<?xml version="1.0" encoding="UTF-8"?>
<svg xmlns="http://www.w3.org/2000/svg" xmlns:xlink="http://www.w3.org/1999/xlink" width="45px" height="45px" viewBox="0 0 45 45" version="1.1">
<g id="surface1">
<path style=" stroke:none;fill-rule:nonzero;fill:rgb(100%,100%,100%);fill-opacity:1;" d="M 4.5625 40.597656 L 7.089844 31.375 C 5.53125 28.679688 4.710938 25.617188 4.710938 22.480469 C 4.71875 12.667969 12.703125 4.6875 22.511719 4.6875 C 27.273438 4.6875 31.742188 6.542969 35.105469 9.90625 C 38.464844 13.269531 40.3125 17.738281 40.3125 22.496094 C 40.308594 32.304688 32.324219 40.289062 22.511719 40.289062 L 22.503906 40.289062 C 19.527344 40.289062 16.597656 39.539062 14 38.121094 Z M 4.5625 40.597656 "/>
<path style=" stroke:none;fill-rule:nonzero;fill:rgb(100%,100%,100%);fill-opacity:1;" d="M 4.5625 41.066406 C 4.441406 41.066406 4.320312 41.015625 4.230469 40.925781 C 4.113281 40.808594 4.066406 40.632812 4.113281 40.472656 L 6.585938 31.441406 C 5.050781 28.714844 4.242188 25.621094 4.246094 22.480469 C 4.25 12.410156 12.445312 4.21875 22.511719 4.21875 C 27.398438 4.21875 31.988281 6.121094 35.4375 9.574219 C 38.882812 13.027344 40.78125 17.617188 40.78125 22.496094 C 40.777344 32.5625 32.582031 40.757812 22.511719 40.757812 C 19.523438 40.757812 16.566406 40.019531 13.941406 38.621094 L 4.683594 41.050781 C 4.644531 41.0625 4.605469 41.066406 4.5625 41.066406 Z M 4.5625 41.066406 "/>
<path style=" stroke:none;fill-rule:nonzero;fill:rgb(81.176471%,84.705882%,86.27451%);fill-opacity:1;" d="M 22.511719 4.6875 C 27.273438 4.6875 31.742188 6.542969 35.105469 9.90625 C 38.464844 13.269531 40.3125 17.738281 40.3125 22.496094 C 40.308594 32.304688 32.324219 40.289062 22.511719 40.289062 L 22.503906 40.289062 C 19.527344 40.289062 16.597656 39.539062 14 38.121094 L 4.5625 40.597656 L 7.089844 31.375 C 5.53125 28.679688 4.710938 25.617188 4.710938 22.480469 C 4.71875 12.667969 12.703125 4.6875 22.511719 4.6875 M 22.511719 40.289062 L 22.511719 40.289062 M 22.511719 40.289062 L 22.511719 40.289062 M 22.511719 3.75 C 12.1875 3.75 3.78125 12.152344 3.773438 22.480469 C 3.773438 25.636719 4.570312 28.746094 6.082031 31.5 L 3.660156 40.351562 C 3.570312 40.671875 3.660156 41.019531 3.898438 41.257812 C 4.074219 41.4375 4.316406 41.535156 4.5625 41.535156 C 4.644531 41.535156 4.722656 41.523438 4.800781 41.503906 L 13.882812 39.121094 C 16.535156 40.5 19.507812 41.226562 22.503906 41.226562 C 32.839844 41.226562 41.246094 32.824219 41.25 22.496094 C 41.253906 17.488281 39.304688 12.785156 35.769531 9.242188 C 32.230469 5.703125 27.523438 3.75 22.511719 3.75 Z M 22.511719 3.75 "/>
<path style=" stroke:none;fill-rule:nonzero;fill:rgb(25.098039%,76.470588%,31.764706%);fill-opacity:1;" d="M 32.976562 12.03125 C 30.183594 9.234375 26.46875 7.695312 22.519531 7.691406 C 14.359375 7.691406 7.722656 14.328125 7.71875 22.480469 C 7.714844 25.277344 8.5 27.996094 9.980469 30.351562 L 10.332031 30.914062 L 8.835938 36.371094 L 14.4375 34.902344 L 14.976562 35.222656 C 17.25 36.570312 19.851562 37.28125 22.507812 37.285156 L 22.511719 37.285156 C 30.667969 37.285156 37.304688 30.648438 37.308594 22.492188 C 37.308594 18.542969 35.769531 14.824219 32.976562 12.03125 Z M 32.976562 12.03125 "/>
<path style=" stroke:none;fill-rule:evenodd;fill:rgb(100%,100%,100%);fill-opacity:1;" d="M 18.0625 15.042969 C 17.730469 14.300781 17.378906 14.285156 17.0625 14.273438 C 16.804688 14.261719 16.507812 14.261719 16.210938 14.261719 C 15.914062 14.261719 15.433594 14.375 15.023438 14.820312 C 14.617188 15.265625 13.46875 16.339844 13.46875 18.527344 C 13.46875 20.71875 15.0625 22.832031 15.28125 23.128906 C 15.503906 23.425781 18.359375 28.058594 22.878906 29.839844 C 26.636719 31.324219 27.402344 31.027344 28.21875 30.953125 C 29.035156 30.878906 30.847656 29.878906 31.21875 28.839844 C 31.589844 27.800781 31.589844 26.910156 31.480469 26.726562 C 31.367188 26.539062 31.070312 26.429688 30.628906 26.207031 C 30.183594 25.984375 27.996094 24.910156 27.585938 24.761719 C 27.179688 24.613281 26.882812 24.539062 26.585938 24.984375 C 26.289062 25.429688 25.4375 26.429688 25.179688 26.726562 C 24.917969 27.023438 24.660156 27.0625 24.214844 26.835938 C 23.769531 26.613281 22.335938 26.144531 20.636719 24.632812 C 19.316406 23.453125 18.421875 21.996094 18.164062 21.550781 C 17.90625 21.105469 18.136719 20.867188 18.359375 20.644531 C 18.558594 20.445312 18.804688 20.125 19.027344 19.863281 C 19.25 19.605469 19.324219 19.417969 19.472656 19.125 C 19.617188 18.824219 19.546875 18.566406 19.433594 18.34375 C 19.324219 18.121094 18.460938 15.921875 18.0625 15.042969 Z M 18.0625 15.042969 "/>
</g>
</svg>
